<svg width="24" height="24" viewBox="0 0 24 24" fill="none" xmlns="http://www.w3.org/2000/svg">
<g clip-path="url(#clip0_2_222)">
<path d="M9.24992 21.1666C9.75618 21.1666 10.1666 20.7562 10.1666 20.2499C10.1666 19.7437 9.75618 19.3333 9.24992 19.3333C8.74366 19.3333 8.33325 19.7437 8.33325 20.2499C8.33325 20.7562 8.74366 21.1666 9.24992 21.1666Z" stroke="#2C2D35" stroke-width="2" stroke-linecap="round" stroke-linejoin="round"/>
<path d="M19.3334 21.1666C19.8397 21.1666 20.2501 20.7562 20.2501 20.2499C20.2501 19.7437 19.8397 19.3333 19.3334 19.3333C18.8272 19.3333 18.4167 19.7437 18.4167 20.2499C18.4167 20.7562 18.8272 21.1666 19.3334 21.1666Z" stroke="#2C2D35" stroke-width="2" stroke-linecap="round" stroke-linejoin="round"/>
<path d="M1.91675 1.91675H5.58341L8.04008 14.1909C8.12391 14.6129 8.3535 14.992 8.68866 15.2619C9.02383 15.5317 9.44322 15.675 9.87341 15.6667H18.7834C19.2136 15.675 19.633 15.5317 19.9682 15.2619C20.3033 14.992 20.5329 14.6129 20.6167 14.1909L22.0834 6.50008H6.50008" stroke="#2C2D35" stroke-width="2" stroke-linecap="round" stroke-linejoin="round"/>
</g>
<defs>
<clipPath id="clip0_2_222">
<rect width="22" height="22" fill="white" transform="translate(1 1)"/>
</clipPath>
</defs>
</svg>
